<svg id="Layer_1" data-name="Layer 1" xmlns="http://www.w3.org/2000/svg" viewBox="0 0 245.19 248"><defs><style>.cls-1,.cls-2,.cls-3,.cls-4{fill:#fff;}.cls-2{opacity:0.61;}.cls-2,.cls-3,.cls-4{isolation:isolate;}.cls-3{opacity:0.49;}.cls-4{opacity:0.3;}</style></defs><g id="Layer_2" data-name="Layer 2"><g id="Layer_1-2" data-name="Layer 1-2"><path class="cls-1" d="M6.79,92.56C20.65,95.69,105.87,118,157.11,219.43a3.36,3.36,0,0,0,4.5,1.52,3.22,3.22,0,0,0,.88-.63c11.08-11.13,46.82-48.32,59.09-77a10.17,10.17,0,0,0-1.19-10.09C204.58,111.9,131.69,24.61,2.8,33.18a3,3,0,0,0-2.8,3c.11,8.79.74,36.16,4.45,54A3,3,0,0,0,6.79,92.56Z"/><path class="cls-2" d="M6.79,92.56C20.65,95.69,105.87,118,157.11,219.43a3.36,3.36,0,0,0,4.5,1.52,3.22,3.22,0,0,0,.88-.63c11.08-11.13,46.82-48.32,59.09-77a9.41,9.41,0,0,0,.77-3,12.7,12.7,0,0,0-2-7.14c-5-8.18-72.6-103.88-217.55-100a3,3,0,0,0-2.8,3c.11,8.79.74,36.16,4.45,54A3,3,0,0,0,6.79,92.56Z"/><path class="cls-3" d="M110.19,153.39a285.5,285.5,0,0,0,32.65-2.8A279.64,279.64,0,0,0,217,129l.14.18a18,18,0,0,1,1.22,21.06c-.59.95-1.25,2-2,3.15h0l-41,27.34L129.64,175Q119.91,164.2,110.19,153.39Z"/><path class="cls-1" d="M3.18,42.71A171.82,171.82,0,0,1,22,32.61c-6.27,0-12.67.13-19.23.57a3,3,0,0,0-2.8,3c0,2.34.1,6,.25,10.45A6.67,6.67,0,0,1,3.18,42.71Z"/><path class="cls-3" d="M166.43,80.53c-38-7.71-88.68-8.31-145.93,15.91,29.58,9.79,94.54,39.74,136.61,123a3.36,3.36,0,0,0,4.5,1.52,3.22,3.22,0,0,0,.88-.63c11.08-11.13,46.82-48.32,59.09-77a10.17,10.17,0,0,0-1.19-10.09A258,258,0,0,0,166.43,80.53Z"/><path class="cls-1" d="M41.41,143.83c33.46,11.8,101.74,27.19,179.14-4.64,1.18-.48,1.95,1.64,1.45,2.81-5.55,13.07-30,63.18-94.27,104.21a11.37,11.37,0,0,1-12.3,0C100.91,236.75,63.61,209,31.52,156.1a8.35,8.35,0,0,1,9.89-12.27Z"/><path class="cls-1" d="M226.78,90.28c-30-15.81-115.26-50-220.36,1.12a1.25,1.25,0,0,1-1.68-.55,1.29,1.29,0,0,1-.12-.38C3.67,84,.34,59.94,0,37.05a6.67,6.67,0,0,1,3.17-5.77C21.45,19.81,116.1-32.34,239.05,30.21a10.78,10.78,0,0,1,5.88,10,387.23,387.23,0,0,1-4.05,43,9.71,9.71,0,0,1-14.1,7.07Z"/><path class="cls-1" d="M.79,34.2c16.33-14.7,115.32-66.54,238.27-4,2.36,1.2,7.3,7.56,5.88,10-1.85,3.17.78,9.47-2.49,7.06C211.43,24.4,152.55,14,134.8,12.62c-31.34-2.36-56.8.61-81.8,8.52C47.39,22.93,20.78,34.2,13.86,34.2c-3.27,0-9.8,1.63-11.43,0"/><path class="cls-1" d="M31.82,146.86c18.28,11.47,102.86,39.19,184.38,4.62,1.28-.55,3-2.92,4.12-5.4.06-.12.11-.24.16-.36a11,11,0,0,0,1.18-2.8c.69-2.62.46-5.77-.22-5.9a.41.41,0,0,0-.22,0c-21.22,11.43-47.55,18.26-65.31,19.6-31.34,2.36-73-.26-98-8.17a178,178,0,0,0-19.59-4.89c-3.2-.64-2.85,1.44-4.9,1.63"/><path class="cls-4" d="M6.77,92.56c13.89,3.13,100.36,25.75,151.5,129.19a1.53,1.53,0,0,0,2,.71,1.57,1.57,0,0,0,.46-.34c10.46-11.39,32.88-25.12,60.81-78.79a8.21,8.21,0,0,0,.77-3,12.7,12.7,0,0,0-2-7.14c-5-8.19-72.6-103.89-217.55-100a3,3,0,0,0-2.8,3c.11,8.8.74,36.19,4.45,54A3,3,0,0,0,6.77,92.56Z"/></g></g></svg>