<svg width="42" height="48" viewBox="0 0 42 48" fill="none" xmlns="http://www.w3.org/2000/svg"><path fill-rule="evenodd" clip-rule="evenodd" d="M0 48H42V47.5571H0V48ZM0 47.3603H42V46.3061H0V47.3603ZM25.0712 11.5505L22.0679 30.5504C22.0679 30.5504 21.8608 33.904 23.5941 35.8015C24.4322 36.719 25.4585 36.9738 26.4113 37.5214C27.2523 38.0047 28.2096 38.882 28.3573 39.9219C28.5897 41.558 26.8575 41.7769 25.9365 41.4276C24.9568 41.056 24.2128 40.9211 23.2336 40.9624C21.0542 41.0543 20.5628 42.6295 20.57 43.2044C20.5947 45.1689 22.4499 45.8938 22.4499 45.8938C22.4499 45.8938 20.6215 45.9039 19.2039 45.9167C10.8603 45.9922 8.0012 40.2683 6.9355 33.6626L3.368 11.5505H25.0712ZM39.4112 45.8725H24.8226C24.8226 45.8725 21.7105 45.8127 21.7483 43.5914C21.779 41.7914 23.7594 41.2118 26.0796 41.9869C26.7088 42.1971 27.7177 42.2009 28.9595 42.3631C30.2179 42.5274 31.7199 42.3045 33.6128 43.1365C33.7613 43.2018 34.1014 43.133 34.5027 43.1457C34.8665 43.1572 35.2959 43.2551 35.3932 43.2218C35.9391 43.0347 36.2183 42.7443 36.7517 42.7562C36.9595 42.7608 37.1423 42.9359 37.2649 43.0855C37.4196 42.9588 37.5161 42.8629 37.7101 42.8621C38.1632 42.86 38.3399 43.5314 38.6219 43.9509C39.3915 44.124 39.9591 45.0668 40.0838 45.5559C40.1092 45.6555 39.8516 45.7932 39.7726 45.7275C39.41 45.4263 37.9271 43.4741 37.7023 43.4757C37.603 43.4764 37.8566 43.9972 37.9084 44.1721C37.5124 43.9181 36.8015 42.9299 36.5163 43.2194C36.1652 43.5759 37.3901 44.4377 36.878 44.6123C36.6011 44.7067 36.004 44.1454 35.283 43.9148C34.6862 43.724 33.4727 43.8347 33.3037 43.7307C31.9295 42.885 28.4875 43.0049 25.9547 42.8105C25.5241 42.7774 25.0157 42.5219 24.3895 42.4679C23.5472 42.3953 22.6756 42.6937 22.6849 43.6786C22.6894 44.166 23.1388 45.0984 24.4582 45.1383C27.7075 45.2364 33.1993 45.0934 33.1993 45.0934L32.5015 44.5822C32.5015 44.5822 26.2431 44.5423 24.8225 44.4802C24.1621 44.4513 23.9897 43.7318 24.0601 43.5176C24.2179 43.037 24.9747 43.1722 24.9747 43.1722C24.9747 43.1722 25.7868 43.2727 26.2033 43.2944C27.5032 43.362 31.0778 43.6465 32.7393 44.1404C33.215 44.2818 34.0611 44.2252 34.6447 44.3317C35.712 44.5266 36.1513 44.7636 36.9515 45.384L37.5825 45.3799C37.5825 45.3799 37.4857 44.8133 37.5694 44.6827C37.653 44.552 37.7919 44.5892 37.9415 44.645C38.0911 44.7007 38.2433 44.9047 38.3649 44.9389C38.4865 44.9731 38.5293 44.8066 38.6638 44.8335C38.9431 44.8893 39.1641 45.2609 39.3219 45.5121C39.3926 45.6245 39.4109 45.8691 39.4112 45.8725ZM18.0658 42.5031C17.8863 43.0934 18.1266 43.4731 18.6201 43.6861L15.8041 44.508C15.4296 44.6173 15.0375 44.4024 14.9282 44.0279C14.8376 43.7175 15.0152 43.3935 15.3246 43.3032L18.0658 42.5031ZM20.5368 41.795C20.4742 42.3165 20.3875 42.7743 20.3144 43.1916L19.1671 43.5265C18.8304 43.4601 18.4802 43.2973 18.4291 42.911C18.3953 42.6558 18.5505 42.454 18.7516 42.3029L20.5368 41.795ZM18.0825 40.903C17.7159 41.4046 17.8917 41.8626 18.5109 42.1228L15.7024 42.9426C15.3279 43.0519 14.9357 42.8369 14.8264 42.4625C14.7358 42.152 14.9134 41.828 15.2228 41.7377L18.0825 40.903ZM28.6833 22.9316C27.2009 23.6229 25.0856 25.7913 24.2259 27.5008C24.1648 27.6222 24.0252 27.8889 23.9155 28.0936C23.7048 28.4865 23.3109 29.4096 23.215 29.7351C22.9642 30.587 22.9043 30.8305 22.8102 31.38C22.5272 33.0327 22.774 34.3444 23.5283 35.1971C24.0851 35.8266 24.5371 36.0885 26.4965 36.9167C26.7465 37.0224 26.9369 37.1174 27.3611 37.3481C28.9162 38.1941 29.558 39.9735 28.9286 41.5704C28.8277 41.8263 28.7757 41.8372 30.0945 41.9471C31.6027 42.0728 32.7549 42.2724 33.1647 42.4763C32.9928 40.2965 32.5607 34.4168 32.4153 33.0601C32.3956 32.8758 32.2991 32.8519 32.1985 32.8503C31.87 32.845 31.2819 32.837 30.9316 32.6513C31.0774 32.4673 31.2208 32.3428 31.4599 32.1957L30.8069 32.169C29.8474 32.0742 29.6243 31.6366 30.5133 31.1808C30.5133 31.1808 29.2749 31.3303 29.2768 30.2733C29.2771 30.0714 29.3049 29.9968 29.4837 30.0424C29.6524 30.0854 30.0447 30.078 30.0429 30.0317C30.0388 29.921 29.8095 29.8668 29.6912 29.8199C29.4155 29.7109 29.2885 29.5073 29.2068 29.2623C29.1256 29.0194 29.2268 28.9599 29.5844 28.7981C30.0622 28.582 30.0788 28.3856 29.6613 28.3856C28.7928 28.3856 28.806 27.0392 29.611 26.3394C30.0139 25.9892 30.0396 25.8707 29.764 25.7808C29.3529 25.6466 28.781 24.953 28.8099 24.3132C28.8519 23.3816 30.9698 22.8923 31.3135 23.7448C31.4042 23.9698 31.8028 24.0143 31.792 23.732C31.7865 23.5878 32.0542 23.3366 32.3628 23.2061C32.4993 23.1484 32.136 22.9098 31.8717 22.7797C31.4309 22.5626 30.4846 22.4948 29.7876 22.6243C29.113 22.7496 28.9786 22.7939 28.6833 22.9316ZM20.619 40.1627C20.6298 40.6616 20.6069 41.1116 20.5665 41.5228L19.1151 41.9465C18.3526 41.8578 18.0863 41.3377 18.5081 40.7788L20.619 40.1627ZM21.1023 41.5255C21.1023 41.5255 21.3322 37.6253 20.0564 34.9211C18.6859 32.0161 15.5627 28.9202 13.7691 26.8751C13.5846 26.6646 13.3258 26.0816 13.3637 25.6385C13.5278 23.7215 16.2463 24.1656 16.2463 24.1656C16.2463 24.1656 16.3185 24.7883 16.4335 25.0759C17.3303 27.3198 20.1055 30.1082 21.4183 32.699C22.7578 35.3424 24.1774 40.687 24.1774 40.687C22.6673 40.5067 21.6295 40.7742 21.1023 41.5255ZM17.8274 39.3775C17.625 40.0884 17.9476 40.377 18.3326 40.5749L15.5314 41.3925C15.157 41.5018 14.7648 41.2868 14.6555 40.9124C14.5649 40.602 14.7425 40.278 15.0519 40.1876L17.8274 39.3775ZM20.4836 38.6023C20.5535 39.0723 20.5933 39.5066 20.6108 39.9099L19.083 40.3559C18.7482 40.3477 18.4811 40.2397 18.3381 40.0485C18.1703 39.8241 18.1731 39.4759 18.4742 39.1888L20.4836 38.6023ZM17.4932 37.8847C17.1838 38.3346 17.4204 38.8709 17.9945 39.0832L15.1266 39.9203C14.9468 39.9728 14.7535 39.9517 14.5892 39.8616C14.425 39.7716 14.3032 39.62 14.2507 39.4402L14.2504 39.4392C14.1601 39.1298 14.3377 38.8057 14.6471 38.7154L17.4932 37.8847ZM20.181 37.1002C20.2937 37.5492 20.3808 37.9708 20.4466 38.3675L18.5932 38.9085C17.8525 38.8441 17.6844 38.3962 17.9325 37.7565L20.181 37.1002ZM16.9786 36.4397C16.7556 37.2764 17.1494 37.47 17.6014 37.6028L14.6715 38.458C14.2971 38.5672 13.9049 38.3523 13.7956 37.9778C13.705 37.6674 13.8826 37.3434 14.192 37.2531L16.9786 36.4397ZM19.7495 35.631C19.8943 36.0646 20.0172 36.4762 20.1209 36.8674L18.0162 37.4817C17.6623 37.3915 17.4302 37.0796 17.3762 36.8821C17.3035 36.6167 17.4057 36.4159 17.5355 36.2772L19.7495 35.631ZM16.3729 35.0687C16.1273 35.5599 16.3545 36.0872 16.9271 36.2044L14.0272 37.0509C13.8484 37.103 13.6562 37.0821 13.4928 36.9925C13.3295 36.903 13.2084 36.7522 13.1562 36.5734C13.1124 36.4232 13.1304 36.2632 13.2058 36.1278C13.2811 35.9923 13.4077 35.8927 13.557 35.8512L16.3729 35.0687ZM19.1455 34.2191C19.3548 34.6067 19.5334 35.0015 19.6722 35.4032L17.4304 36.0575C17.1377 36.0256 16.7913 35.889 16.7048 35.438C16.6652 35.2609 16.7642 35.0643 16.8924 34.9129L19.1455 34.2191ZM15.5525 33.7442C15.3649 34.372 15.6891 34.7168 16.1514 34.8357L13.2338 35.6873C12.8771 35.7914 12.5031 35.5892 12.3948 35.2337C12.3509 35.0897 12.3667 34.9349 12.4384 34.8035C12.51 34.6721 12.6315 34.5749 12.7755 34.534L15.5525 33.7442ZM18.2947 32.8818C18.5595 33.2465 18.8049 33.6186 19.0223 33.9977L16.6773 34.6822C16.1533 34.637 15.7801 34.191 15.9873 33.6108L18.2947 32.8818ZM14.4051 32.4868C14.5758 33.1283 14.776 33.4551 15.0338 33.5667L12.3061 34.3629C12.1359 34.4126 11.953 34.3926 11.7975 34.3074C11.6421 34.2222 11.5268 34.0787 11.4772 33.9085C11.4366 33.7694 11.4528 33.6206 11.5221 33.4942C11.5914 33.3677 11.7081 33.274 11.8466 33.2336L14.4051 32.4868ZM17.3069 31.6398C17.593 31.9736 17.8709 32.3145 18.1325 32.6623L15.6633 33.383C15.2267 33.2969 14.7938 32.8097 15.1054 32.2824L17.3069 31.6398ZM13.2514 31.2493C13.3034 31.2742 13.3518 31.3012 13.387 31.3285C13.6657 31.5441 13.2972 31.9377 14.1138 32.2745L11.2151 33.1205C10.8576 33.2249 10.4831 33.0196 10.3788 32.6621C10.3377 32.5213 10.3541 32.3706 10.4243 32.2425C10.4945 32.1144 10.6127 32.0195 10.7529 31.9786L13.2514 31.2493ZM30.2908 28.023C30.4741 27.9879 30.4743 28.2629 30.3097 28.6834C30.1323 29.1367 29.539 29.1793 29.595 29.2709C29.8403 29.6725 30.6194 29.5133 30.8285 29.5813C30.9801 29.6306 30.7469 30.1624 30.2494 30.4888C29.8858 30.7275 30.0059 30.8396 30.4854 30.8739C30.7051 30.8896 31.0146 30.6717 31.3087 30.6746C31.4132 30.6756 31.3901 31.2301 31.0902 31.457C30.3882 31.9884 30.9589 31.9664 31.8381 31.7184C32.3289 31.58 32.2405 31.7333 32.0526 32.0916C31.9389 32.3085 31.7081 32.4211 31.7769 32.4884C31.8689 32.5784 32.6048 32.6942 33.1534 32.0007C33.2553 31.8719 33.2825 31.6848 33.0094 31.481C32.0487 30.7641 31.6568 29.906 31.335 28.6148C31.2269 28.1805 31.1688 26.4488 31.2565 26.0598C31.3111 25.8178 31.2487 25.8251 30.6415 26.132C29.1766 26.8726 28.9266 28.2845 30.2908 28.023ZM34.2857 28.9973C32.261 29.0151 31.7272 30.3592 33.2875 31.3072C33.5327 31.456 33.4796 31.5016 33.4797 31.7072C33.4798 31.9995 33.7664 32.1792 34.0058 32.2001C34.5401 32.2466 34.8321 32.0518 34.9303 31.3868C34.9783 31.0609 35.0702 30.8908 35.4019 30.4454C35.5594 30.2339 35.6311 30.0961 35.589 30.0807C35.5107 30.052 35.3052 30.0993 35.1425 30.3746C34.5966 31.2987 33.1992 31.0854 32.8854 30.4179C32.6671 29.9536 33.0556 29.3202 34.4565 29.315C35.4435 29.3115 35.4799 29.3514 35.571 29.6844C35.6437 29.9504 35.8137 29.8422 36.1712 29.3021C36.7605 28.4118 36.6833 28.2583 36.0816 28.5861C35.5117 28.8965 35.0165 28.9908 34.2857 28.9973ZM16.1826 30.3938C16.4899 30.7219 16.799 31.0583 17.101 31.4026L14.7116 32.1C14.4816 32.0432 14.2634 31.9075 14.0991 31.6902C13.9609 31.5075 13.9704 31.213 14.1733 30.9803L16.1826 30.3938ZM12.5005 29.8986C12.3421 30.491 12.5143 30.7548 13.0942 30.9425L10.1841 31.7919C10.0136 31.8417 9.8304 31.8217 9.6748 31.7363C9.5191 31.651 9.4037 31.5073 9.3539 31.3369C9.3125 31.195 9.3297 31.0434 9.4015 30.9152C9.4732 30.787 9.5934 30.693 9.7351 30.6543L12.5005 29.8986ZM14.9899 29.132C15.2893 29.451 15.6035 29.7795 15.9223 30.1171L13.5992 30.7951C12.9849 30.6699 12.7895 30.1658 13.0797 29.7227L14.9899 29.132ZM11.3441 28.6528C11.2998 29.3162 11.7351 29.5318 12.1854 29.6126L9.1999 30.484C8.8047 30.5994 8.3893 30.3806 8.2608 29.9895C8.2449 29.9411 8.2292 29.8931 8.2139 29.8466C8.1758 29.7306 8.1884 29.6039 8.2486 29.4977C8.3088 29.3915 8.411 29.3156 8.53 29.2887L11.3441 28.6528ZM33.8197 29.8497C34.2142 29.8471 34.5586 29.874 34.9256 30.255C34.9601 30.2909 35.0023 30.1704 35.0287 30.1144C35.0883 29.9879 35.2058 29.854 35.0835 29.7676C34.8421 29.5971 34.1499 29.5544 33.6203 29.7161C33.3047 29.8126 33.4438 29.8522 33.8197 29.8497ZM13.8805 27.8902C14.1392 28.2042 14.4306 28.5298 14.7421 28.8664L12.6794 29.4684C11.8678 29.4475 11.7257 28.7951 11.7867 28.4248L12.0686 28.2504L13.8805 27.8902ZM10.5 27.3198C10.603 27.806 10.9019 28.0357 11.2183 28.2338L8.0936 29.0136C7.8541 29.0734 7.6034 28.9726 7.4718 28.7637C7.3868 28.6287 7.2869 28.4701 7.1905 28.317C7.1064 28.1834 7.0973 28.0159 7.1665 27.874C7.2357 27.7322 7.3733 27.6362 7.5304 27.6203L10.5 27.3198ZM33.7915 28.0751C33.691 28.242 33.5435 28.4669 33.2999 28.6774C33.1315 28.8229 35.0477 28.6614 35.5392 28.3798C35.8842 28.1822 36.2648 28.2173 36.3624 28.2425C36.5053 28.2795 36.4809 28.0692 36.3507 27.6873C36.0845 26.907 35.6223 26.6725 34.9815 26.8942C34.5663 27.0379 34.2112 27.3778 33.7915 28.0751ZM33.7309 26.441C33.5469 26.6099 33.2907 26.8632 33.1067 26.9916C32.3609 27.5116 32.0265 28.0268 32.3144 28.3114C32.8051 28.7968 33.7196 27.9814 33.7334 27.0052C33.7393 26.5939 34.0927 26.1959 35.0697 26.0797C35.3304 26.0487 35.4029 25.9481 35.1158 25.9532C34.8244 25.9584 34.5482 25.9638 34.5022 25.9793C34.2055 26.0794 34.0228 26.1731 33.7309 26.441ZM13.0386 26.6761C13.1975 26.9805 13.414 27.299 13.6727 27.631L11.6604 28.1235C11.2441 27.9185 10.6636 27.2651 11.1514 26.8351L11.152 26.831L13.0386 26.6761ZM34.7791 26.4729C35.0479 26.4379 35.4426 26.3901 35.7157 26.4935C36.3085 26.7177 36.7244 27.2849 36.7432 27.694C36.7532 27.9116 36.8865 28.0132 36.9488 27.765C36.9906 27.5987 37.1684 27.1805 37.1771 26.7775C37.1787 26.7021 37.1687 26.5713 37.1049 26.531C37.037 26.4882 36.7532 26.5156 36.6247 26.4925C36.4554 26.4619 36.1873 26.399 36.0451 26.3243C35.7204 26.1538 35.0748 26.2065 34.7212 26.3083C34.6402 26.3316 34.5099 26.5079 34.7791 26.4729ZM10.3879 27.1228L7.2593 27.21C6.975 27.2179 6.7283 27.0156 6.6803 26.7353C6.663 26.6347 6.6442 26.5249 6.625 26.4125C6.5809 26.1553 6.6601 25.8923 6.8388 25.7021C7.0176 25.512 7.2752 25.4166 7.5347 25.4447C8.4907 25.548 9.2758 25.6382 9.7544 25.6919C9.8265 26.4322 10.2081 26.9272 10.3879 27.1228ZM32.0017 26.777C32.3079 27.0803 32.8807 26.9823 33.1079 26.6893C33.7187 25.9018 34.2091 25.6973 34.9662 25.6941C35.2222 25.6931 35.1056 25.5768 34.8732 25.3583C34.564 25.0677 34.3694 25.0408 33.9957 25.0617C33.7104 25.0776 33.6119 25.0597 33.612 24.9735C33.6123 24.6247 33.0066 24.4097 32.5912 24.6664C31.8609 25.1177 31.536 26.3159 32.0017 26.777ZM34.5125 25.4513C34.5369 25.4889 33.8964 25.6703 33.6373 25.8534C33.5291 25.9298 33.4662 26.008 33.3663 26.0618C33.3448 26.0734 32.9585 26.0661 32.8127 25.898C32.6545 25.7156 32.7445 25.2967 33.038 25.3009C33.2159 25.3034 33.113 25.4503 33.0468 25.6167C33.01 25.7093 33.0252 25.8297 33.084 25.8476C33.6232 26.0118 33.4599 25.1601 33.1383 25.1054C32.9021 25.0653 32.4427 25.2401 32.4158 25.609C32.4032 25.7815 32.423 25.9446 32.6343 26.1074C32.8126 26.2447 33.0314 26.2069 33.2103 26.1927C32.9726 26.4398 32.7261 26.6462 32.4439 26.631C32.0687 26.6108 32.022 25.9342 32.2644 25.4508C32.4068 25.1668 32.7541 24.8469 33.0285 24.8602C33.4025 24.8785 33.3624 25.1256 33.533 25.2968C33.632 25.3963 34.3736 25.2376 34.5125 25.4513ZM13.0182 26.3788L10.7153 26.4767C10.0815 26.0119 10.0535 24.1925 10.3705 23.9575C11.0299 24.7319 11.9663 25.0137 12.9237 25.1615C12.89 25.32 12.8684 25.4949 12.8604 25.6877C12.8529 25.869 12.8666 26.1938 13.0182 26.3788ZM31.6486 24.3765C31.4573 24.5531 31.3911 24.5439 31.1751 24.2209C30.9478 23.881 30.6522 23.7368 30.3798 23.7334C29.7509 23.7253 29.2164 24.3094 29.1716 24.3983C29.1335 24.4739 29.2455 24.5014 29.2819 24.6387C29.4023 25.0931 29.8651 25.7298 30.4864 25.7644C30.9637 25.791 31.3739 25.6222 31.6972 25.1048C32.0138 24.5981 32.3271 24.2608 32.6659 24.1394C33.1427 23.9684 33.5965 24.158 34.0227 24.5929C34.0904 24.662 34.2981 24.6934 34.364 24.6906C34.4935 24.6849 34.7987 24.9105 34.9517 25.0952C35.2653 25.4736 35.4075 25.4884 35.3326 25.2419C35.2769 25.0586 34.6314 24.3689 34.2699 24.2512C33.9424 24.1446 33.5821 23.5677 33.0346 23.4541C32.7951 23.4043 32.5943 23.5645 32.3959 23.7357C32.1408 23.9556 31.7226 24.3083 31.6486 24.3765ZM9.7337 25.3859C9.2501 25.3015 7.8999 25.0672 6.9395 24.9119C6.7576 24.8826 6.595 24.7821 6.4874 24.6326C6.3797 24.4832 6.3359 24.2971 6.3657 24.1153C6.3913 23.9586 6.4188 23.7908 6.4451 23.6298C6.4765 23.4377 6.5948 23.2708 6.7656 23.1775C6.9364 23.0841 7.1408 23.0748 7.3194 23.1521C8.1798 23.5244 9.2668 24.0107 9.7356 24.2211C9.696 24.5835 9.718 25.1146 9.7337 25.3859ZM12.9839 24.9332C12.1228 24.8041 11.5562 24.5901 10.6232 23.8285C10.1127 23.2303 11.2551 21.7311 11.7924 22.1374C12.1249 23.2676 12.7196 23.6927 13.4198 24.2113C13.2327 24.3903 13.082 24.6255 12.9839 24.9332ZM13.5764 24.0801C13.0144 23.5835 12.449 22.8659 12.2634 22.2207C12.2217 22.0757 12.2047 21.8358 12.2667 21.7346C12.6895 21.0435 13.7628 21.1309 14.1437 21.1853C14.218 21.1959 14.2629 21.2754 14.2563 21.3286C14.1586 22.1129 14.299 22.7109 14.5008 23.2184C14.5139 23.2514 14.5674 23.7103 14.4955 23.7223C14.1588 23.7788 13.8409 23.8864 13.5764 24.0801ZM9.7926 23.9121L7.2731 22.5876C7.0889 22.4907 6.9508 22.3245 6.8893 22.1257C6.8279 21.9269 6.8481 21.7117 6.9456 21.5279C6.9565 21.5072 6.9675 21.4865 6.9786 21.4656C7.104 21.229 7.3299 21.062 7.5929 21.0114C7.8558 20.9608 8.1276 21.0322 8.3318 21.2054L10.228 22.8137C10.0635 23.0911 9.8887 23.5201 9.7926 23.9121ZM14.9744 23.6732C14.6513 23.2319 14.5606 22.0666 14.6108 21.3661C14.6204 21.2323 14.7165 21.1876 14.7528 21.1891C15.4415 21.2188 15.959 21.4088 16.4926 21.8974C16.5547 21.9543 16.5691 22.1021 16.5413 22.1412C16.2114 22.604 16.0773 23.1271 16.1051 23.7004C15.7571 23.6803 15.3639 23.6547 14.9744 23.6732ZM10.3719 22.591C9.8894 22.19 8.5166 21.0393 8.3823 20.8211C8.1814 19.6272 9.2988 18.9235 10.0362 19.193C10.2396 19.4853 10.967 21.0322 11.2372 21.6118C10.8226 21.9408 10.5419 22.335 10.3719 22.591ZM16.1154 21.0007C16.5086 20.5309 17.412 19.4629 17.7914 19.1072C18.066 18.8498 18.5567 18.7217 18.7898 18.9093C19.0027 19.0807 19.3701 19.4602 19.4367 19.7564C19.5316 20.1782 19.427 20.47 19.0916 20.6866C18.6985 20.9406 17.483 21.6078 16.9717 21.8866C16.733 21.4852 16.4587 21.1975 16.1154 21.0007ZM11.4955 21.4195C11.1913 20.82 10.4135 19.2789 10.2326 18.8428C10.1779 18.7109 10.1491 18.5069 10.2647 18.3753C10.6912 17.8894 11.6834 17.5449 12.2098 17.5983C12.4397 17.6216 12.5206 17.7398 12.5277 17.9233C12.5528 18.5737 12.599 20.2423 12.6147 20.8201C12.217 20.9536 11.8246 21.1864 11.4955 21.4195ZM14.5446 20.6454C14.7891 19.9961 15.3137 18.6066 15.4843 18.1803C15.5338 18.0567 15.632 17.7238 15.8091 17.6286C16.0063 17.5226 16.4781 17.475 16.8008 17.555C17.1236 17.635 17.476 17.9071 17.5884 18.1217C17.7009 18.3363 17.6417 18.5853 17.5099 18.7893C17.2553 19.1834 16.3181 20.3691 15.9008 20.8932C15.5332 20.7338 15.0918 20.6585 14.5446 20.6454ZM12.8804 20.7469C12.8694 20.083 12.8459 18.2114 12.9177 17.6889C12.9521 17.4391 13.1321 17.2368 13.3745 17.1672C13.6854 17.0777 14.5144 17.0738 14.8286 17.1801C15.0851 17.2669 15.3022 17.4959 15.2626 17.7638C15.1895 18.2595 14.5475 19.9504 14.279 20.6437C13.9274 20.6471 13.5351 20.6721 13.0951 20.7136C13.024 20.7203 12.9523 20.7316 12.8804 20.7469ZM25.1138 11.2808H3.3245L3.2762 10.9817H25.1611L25.1138 11.2808ZM25.2508 10.4141H3.1847L3.0823 9.7796C3.157 9.7621 3.2308 9.7407 3.3035 9.7147C3.542 9.6296 3.7622 9.4987 3.952 9.3311C4.1317 9.1724 4.2828 8.9834 4.4086 8.7797C4.5024 8.6279 4.5826 8.4678 4.6522 8.3035C4.6668 8.2689 4.6801 8.2336 4.6933 8.1983V7.584C4.6744 7.5889 4.6559 7.5953 4.6379 7.603C4.5308 7.6491 4.4544 7.74 4.4026 7.8421C4.3687 7.9087 4.3459 7.9802 4.3187 8.0496C4.306 8.0818 4.2926 8.1136 4.2795 8.1455C4.2465 8.2206 4.2127 8.2949 4.1759 8.3683C4.0833 8.546 3.9768 8.716 3.8441 8.8669C3.6274 9.1135 3.348 9.2923 3.0299 9.3761L3.0177 9.3792L1.7444 1.4872H26.6618L25.4075 9.4229C25.3268 9.4125 25.2466 9.3968 25.1682 9.3761C24.8501 9.2923 24.5708 9.1135 24.354 8.8669C24.2214 8.716 24.1148 8.546 24.0222 8.3683C23.9854 8.2949 23.9516 8.2206 23.9186 8.1455C23.9055 8.1136 23.8921 8.0818 23.8795 8.0496C23.8522 7.9802 23.8294 7.9087 23.7955 7.8421C23.7437 7.74 23.6673 7.6491 23.5602 7.603C23.5422 7.5953 23.5237 7.5889 23.5048 7.584V8.1983C23.518 8.2336 23.5313 8.2689 23.546 8.3035C23.6156 8.4678 23.6957 8.6279 23.7895 8.7797C23.9154 8.9834 24.0664 9.1724 24.2461 9.3311C24.4359 9.4987 24.6562 9.6296 24.8947 9.7147C25.0408 9.7669 25.1915 9.8008 25.3445 9.8215L25.2508 10.4141ZM11.7646 9.4402C11.7646 9.4402 11.943 9.4384 11.9937 9.4355C12.1196 9.4283 12.2457 9.4082 12.3676 9.3761C12.6857 9.2923 12.965 9.1135 13.1818 8.8669C13.3144 8.716 13.421 8.546 13.5136 8.3683C13.5503 8.2949 13.5841 8.2206 13.6172 8.1455C13.6302 8.1136 13.6437 8.0818 13.6563 8.0496C13.6836 7.9802 13.7064 7.9087 13.7402 7.8421C13.792 7.74 13.8685 7.6491 13.9755 7.603C13.9935 7.5953 14.0121 7.5889 14.031 7.584V8.1983C14.0178 8.2336 14.0045 8.2689 13.9898 8.3035C13.9202 8.4678 13.84 8.6279 13.7462 8.7797C13.6204 8.9834 13.4693 9.1724 13.2896 9.3311C13.0999 9.4987 12.8796 9.6296 12.6411 9.7147C12.4402 9.7865 12.2309 9.8236 12.0186 9.8395C11.9557 9.8425 11.7521 9.8454 11.7521 9.8454C11.6859 9.8455 11.5696 9.8423 11.5107 9.8395C11.2984 9.8236 11.0891 9.7865 10.8882 9.7147C10.6497 9.6296 10.4294 9.4987 10.2397 9.3311C10.06 9.1724 9.9089 8.9834 9.7831 8.7797C9.6893 8.6279 9.6091 8.4678 9.5395 8.3035C9.5248 8.2689 9.5115 8.2336 9.4983 8.1983V7.584C9.5172 7.5889 9.5358 7.5953 9.5538 7.603C9.6608 7.6491 9.7373 7.74 9.7891 7.8421C9.8229 7.9087 9.8457 7.9802 9.873 8.0496C9.8856 8.0818 9.8991 8.1136 9.9121 8.1455C9.9452 8.2206 9.979 8.2949 10.0157 8.3683C10.1083 8.546 10.2149 8.716 10.3475 8.8669C10.5643 9.1135 10.8436 9.2923 11.1617 9.3761C11.2836 9.4082 11.4097 9.4283 11.5356 9.4355C11.5897 9.4386 11.7104 9.4365 11.7646 9.4402ZM21.1023 9.8453C21.1023 9.8453 20.9073 9.8423 20.8483 9.8395C20.6361 9.8236 20.4267 9.7865 20.2258 9.7147C19.9873 9.6296 19.7671 9.4987 19.5773 9.3311C19.3976 9.1724 19.2465 8.9834 19.1207 8.7797C19.0269 8.6279 18.9467 8.4678 18.8771 8.3035C18.8625 8.2689 18.8492 8.2336 18.836 8.1983V7.584C18.8549 7.5889 18.8734 7.5953 18.8914 7.603C18.9985 7.6491 19.0749 7.74 19.1267 7.8421C19.1606 7.9087 19.1834 7.9802 19.2106 8.0496C19.2233 8.0818 19.2367 8.1136 19.2498 8.1455C19.2828 8.2206 19.3166 8.2949 19.3534 8.3683C19.446 8.546 19.5525 8.716 19.6852 8.8669C19.9019 9.1135 20.1813 9.2923 20.4994 9.3761C20.6213 9.4082 20.7473 9.4283 20.8732 9.4355C20.9274 9.4386 21.0481 9.4365 21.1023 9.4402C21.1023 9.4402 21.2806 9.4384 21.3314 9.4355C21.4572 9.4283 21.5833 9.4082 21.7052 9.3761C22.0233 9.2923 22.3026 9.1135 22.5194 8.8669C22.652 8.716 22.7586 8.546 22.8512 8.3683C22.888 8.2949 22.9218 8.2206 22.9548 8.1455C22.9679 8.1136 22.9813 8.0818 22.9939 8.0496C23.0212 7.9802 23.044 7.9087 23.0779 7.8421C23.1297 7.74 23.2061 7.6491 23.3132 7.603C23.3312 7.5953 23.3497 7.5889 23.3686 7.584V8.1983C23.3554 8.2336 23.3421 8.2689 23.3275 8.3035C23.2579 8.4678 23.1777 8.6279 23.0839 8.7797C22.958 8.9834 22.807 9.1724 22.6273 9.3311C22.4375 9.4987 22.2172 9.6296 21.9787 9.7147C21.7779 9.7865 21.5685 9.8236 21.3563 9.8395C21.2934 9.8425 21.1653 9.846 21.1023 9.8453ZM16.4444 9.4396C16.5025 9.4368 16.6118 9.4384 16.6626 9.4355C16.7884 9.4283 16.9145 9.4082 17.0364 9.3761C17.3545 9.2923 17.6338 9.1135 17.8506 8.8669C17.9832 8.716 18.0898 8.546 18.1824 8.3683C18.2192 8.2949 18.253 8.2206 18.286 8.1455C18.299 8.1136 18.3125 8.0818 18.3251 8.0496C18.3524 7.9802 18.3752 7.9087 18.409 7.8421C18.4608 7.74 18.5373 7.6491 18.6443 7.603C18.6623 7.5953 18.6809 7.5889 18.6998 7.584V8.1983C18.6866 8.2336 18.6733 8.2689 18.6586 8.3035C18.589 8.4678 18.5089 8.6279 18.415 8.7797C18.2892 8.9834 18.1382 9.1724 17.9585 9.3311C17.7687 9.4987 17.5484 9.6296 17.3099 9.7147C17.109 9.7865 16.8997 9.8236 16.6875 9.8395C16.6246 9.8425 16.4965 9.846 16.4335 9.8453C16.3705 9.846 16.2424 9.8425 16.1795 9.8395C15.9672 9.8236 15.7579 9.7865 15.557 9.7147C15.3185 9.6296 15.0982 9.4987 14.9085 9.3311C14.7288 9.1724 14.5777 8.9834 14.4519 8.7797C14.3581 8.6279 14.2779 8.4678 14.2083 8.3035C14.1936 8.2689 14.1803 8.2336 14.1671 8.1983V7.584C14.1861 7.5889 14.2046 7.5953 14.2226 7.603C14.3297 7.6491 14.4061 7.74 14.4579 7.8421C14.4917 7.9087 14.5146 7.9802 14.5418 8.0496C14.5544 8.0818 14.5679 8.1136 14.5809 8.1455C14.614 8.2206 14.6478 8.2949 14.6846 8.3683C14.7771 8.546 14.8837 8.716 15.0163 8.8669C15.2331 9.1135 15.5124 9.2923 15.8306 9.3761C15.9524 9.4082 16.0785 9.4283 16.2044 9.4355C16.2585 9.4386 16.4444 9.4396 16.4444 9.4396ZM6.8667 9.4355C6.9209 9.4386 7.2741 9.4384 7.3249 9.4355C7.4508 9.4283 7.5769 9.4082 7.6987 9.3761C8.0169 9.2923 8.2962 9.1135 8.513 8.8669C8.6456 8.716 8.7522 8.546 8.8447 8.3683C8.8815 8.2949 8.9153 8.2206 8.9484 8.1455C8.9614 8.1136 8.9749 8.0818 8.9875 8.0496C9.0147 7.9802 9.0376 7.9087 9.0714 7.8421C9.1232 7.74 9.1996 7.6491 9.3067 7.603C9.3247 7.5953 9.3432 7.5889 9.3622 7.584V8.1983C9.349 8.2336 9.3357 8.2689 9.321 8.3035C9.2514 8.4678 9.1712 8.6279 9.0774 8.7797C8.9516 8.9834 8.8005 9.1724 8.6208 9.3311C8.431 9.4987 8.2108 9.6296 7.9723 9.7147C7.7714 9.7865 7.5621 9.8236 7.3498 9.8395C7.2869 9.8425 6.9008 9.8423 6.8418 9.8395C6.6296 9.8236 6.4203 9.7865 6.2194 9.7147C5.9809 9.6296 5.7606 9.4987 5.5708 9.3311C5.3911 9.1724 5.2401 8.9834 5.1143 8.7797C5.0204 8.6279 4.9403 8.4678 4.8707 8.3035C4.856 8.2689 4.8427 8.2336 4.8295 8.1983V7.584C4.8484 7.5889 4.8669 7.5953 4.885 7.603C4.992 7.6491 5.0685 7.74 5.1203 7.8421C5.1541 7.9087 5.1769 7.9802 5.2042 8.0496C5.2168 8.0818 5.2303 8.1136 5.2433 8.1455C5.2763 8.2206 5.3101 8.2949 5.3469 8.3683C5.4395 8.546 5.5461 8.716 5.6787 8.8669C5.8955 9.1135 6.1748 9.2923 6.4929 9.3761C6.6148 9.4082 6.7409 9.4283 6.8667 9.4355ZM4.6305 7.3996C4.5626 7.4591 4.49 7.5228 4.471 7.5395C4.4679 7.5422 4.4639 7.5435 4.4598 7.5432C4.4249 7.5396 4.3765 7.5205 4.3488 7.4752C4.3437 7.4662 4.3459 7.4549 4.3538 7.4484C4.4078 7.4008 4.6313 7.204 4.7225 7.1237C4.7448 7.1041 4.7782 7.1041 4.8005 7.1237C4.9024 7.2135 5.1691 7.4484 5.1691 7.4484C5.1771 7.4549 5.1792 7.4662 5.1742 7.4752C5.1464 7.5205 5.098 7.5396 5.0631 7.5432C5.0591 7.5435 5.055 7.5422 5.0519 7.5395C5.0208 7.5122 4.8461 7.359 4.7837 7.3042C4.771 7.293 4.752 7.293 4.7392 7.3042C4.7019 7.337 4.6305 7.3996 4.6305 7.3996ZM9.2993 7.3996C9.2315 7.4591 9.1588 7.5228 9.1398 7.5395C9.1367 7.5422 9.1327 7.5435 9.1286 7.5432C9.0938 7.5396 9.0454 7.5205 9.0176 7.4752C9.0126 7.4662 9.0147 7.4549 9.0226 7.4484C9.0767 7.4008 9.3001 7.204 9.3913 7.1237C9.4136 7.1041 9.447 7.1041 9.4693 7.1237C9.5712 7.2135 9.8379 7.4484 9.8379 7.4484C9.8459 7.4549 9.848 7.4662 9.843 7.4752C9.8152 7.5205 9.7668 7.5396 9.732 7.5432C9.7279 7.5435 9.7238 7.5422 9.7208 7.5395C9.6896 7.5122 9.515 7.359 9.4525 7.3042C9.4398 7.293 9.4208 7.293 9.4081 7.3042C9.3707 7.337 9.2993 7.3996 9.2993 7.3996ZM13.9681 7.3996C13.9003 7.4591 13.8277 7.5228 13.8086 7.5395C13.8055 7.5422 13.8015 7.5435 13.7974 7.5432C13.7626 7.5396 13.7142 7.5205 13.6864 7.4752C13.6814 7.4662 13.6835 7.4549 13.6915 7.4484C13.7455 7.4008 13.9689 7.204 14.0601 7.1237C14.0824 7.1041 14.1158 7.1041 14.1381 7.1237C14.2401 7.2135 14.5067 7.4484 14.5067 7.4484C14.5147 7.4549 14.5168 7.4662 14.5118 7.4752C14.484 7.5205 14.4356 7.5396 14.4008 7.5432C14.3967 7.5435 14.3927 7.5422 14.3896 7.5395C14.3584 7.5122 14.1838 7.359 14.1213 7.3042C14.1086 7.293 14.0896 7.293 14.0769 7.3042C14.0395 7.337 13.9681 7.3996 13.9681 7.3996ZM18.637 7.3996C18.5691 7.4591 18.4965 7.5228 18.4774 7.5395C18.4744 7.5422 18.4703 7.5435 18.4662 7.5432C18.4314 7.5396 18.383 7.5205 18.3552 7.4752C18.3502 7.4662 18.3523 7.4549 18.3603 7.4484C18.4143 7.4008 18.6378 7.204 18.7289 7.1237C18.7512 7.1041 18.7846 7.1041 18.8069 7.1237C18.9089 7.2135 19.1756 7.4484 19.1756 7.4484C19.1835 7.4549 19.1856 7.4662 19.1806 7.4752C19.1528 7.5205 19.1044 7.5396 19.0696 7.5432C19.0655 7.5435 19.0615 7.5422 19.0584 7.5395C19.0272 7.5122 18.8526 7.359 18.7901 7.3042C18.7774 7.293 18.7584 7.293 18.7457 7.3042C18.7083 7.337 18.637 7.3996 18.637 7.3996ZM23.3058 7.3996C23.2379 7.4591 23.1653 7.5228 23.1463 7.5395C23.1432 7.5422 23.1391 7.5435 23.1351 7.5432C23.1002 7.5396 23.0518 7.5205 23.024 7.4752C23.019 7.4662 23.0211 7.4549 23.0291 7.4484C23.0831 7.4008 23.3066 7.204 23.3978 7.1237C23.42 7.1041 23.4535 7.1041 23.4757 7.1237C23.5777 7.2135 23.8444 7.4484 23.8444 7.4484C23.8523 7.4549 23.8545 7.4662 23.8494 7.4752C23.8217 7.5205 23.7733 7.5396 23.7384 7.5432C23.7343 7.5435 23.7303 7.5422 23.7272 7.5395C23.6961 7.5122 23.5214 7.359 23.459 7.3042C23.4463 7.293 23.4272 7.293 23.4145 7.3042C23.3772 7.337 23.3058 7.3996 23.3058 7.3996ZM23.4368 5.2099L24.0965 4.5976C24.0965 4.5976 24.8927 3.8088 25.1042 3.6225C25.2254 3.5158 25.3515 3.5216 25.3515 3.5216C25.3515 3.5216 24.5577 4.9968 24.5608 5.8682C24.5642 6.8205 23.9354 7.3511 23.9354 7.3511L23.4368 6.912L22.9382 7.3511C22.9382 7.3511 22.3094 6.8205 22.3128 5.8682C22.3159 4.9968 21.5221 3.5216 21.5221 3.5216C21.5221 3.5216 21.6482 3.5158 21.7694 3.6225C21.9809 3.8088 22.7771 4.5976 22.7771 4.5976L23.4368 5.2099ZM4.7615 5.2099L5.4212 4.5976C5.4212 4.5976 6.2174 3.8088 6.4289 3.6225C6.5501 3.5158 6.6762 3.5216 6.6762 3.5216C6.6762 3.5216 5.8824 4.9968 5.8855 5.8682C5.8889 6.8205 5.2601 7.3511 5.2601 7.3511L4.7615 6.912L4.2629 7.3511C4.2629 7.3511 3.6341 6.8205 3.6375 5.8682C3.6406 4.9968 2.8468 3.5216 2.8468 3.5216C2.8468 3.5216 2.9729 3.5158 3.0941 3.6225C3.3056 3.8088 4.1018 4.5976 4.1018 4.5976L4.7615 5.2099ZM9.4303 5.2099L10.09 4.5976C10.09 4.5976 10.8862 3.8088 11.0977 3.6225C11.2189 3.5158 11.345 3.5216 11.345 3.5216C11.345 3.5216 10.5512 4.9968 10.5543 5.8682C10.5577 6.8205 9.9289 7.3511 9.9289 7.3511L9.4303 6.912L8.9317 7.3511C8.9317 7.3511 8.3029 6.8205 8.3063 5.8682C8.3094 4.9968 7.5156 3.5216 7.5156 3.5216C7.5156 3.5216 7.6418 3.5158 7.7629 3.6225C7.9744 3.8088 8.7706 4.5976 8.7706 4.5976L9.4303 5.2099ZM14.0991 5.2099L14.7588 4.5976C14.7588 4.5976 15.555 3.8088 15.7665 3.6225C15.8877 3.5158 16.0138 3.5216 16.0138 3.5216C16.0138 3.5216 15.2201 4.9968 15.2231 5.8682C15.2265 6.8205 14.5977 7.3511 14.5977 7.3511L14.0991 6.912L13.6005 7.3511C13.6005 7.3511 12.9718 6.8205 12.9751 5.8682C12.9782 4.9968 12.1845 3.5216 12.1845 3.5216C12.1845 3.5216 12.3106 3.5158 12.4318 3.6225C12.6433 3.8088 13.4395 4.5976 13.4395 4.5976L14.0991 5.2099ZM18.768 5.2099L19.4276 4.5976C19.4276 4.5976 20.2238 3.8088 20.4353 3.6225C20.5565 3.5158 20.6826 3.5216 20.6826 3.5216C20.6826 3.5216 19.8889 4.9968 19.892 5.8682C19.8953 6.8205 19.2666 7.3511 19.2666 7.3511L18.768 6.912L18.2694 7.3511C18.2694 7.3511 17.6406 6.8205 17.644 5.8682C17.647 4.9968 16.8533 3.5216 16.8533 3.5216C16.8533 3.5216 16.9794 3.5158 17.1006 3.6225C17.3121 3.8088 18.1083 4.5976 18.1083 4.5976L18.768 5.2099ZM13.5419 4.4865C13.2101 4.1788 12.8089 3.8064 12.5725 3.5866C12.5178 3.5359 12.4875 3.4641 12.4893 3.3895C12.4911 3.3149 12.5249 3.2447 12.582 3.1967C12.6398 3.1464 12.7152 3.1252 12.7893 3.1365C12.8635 3.1478 12.9292 3.1904 12.9697 3.2535L13.6364 4.2866C13.5928 4.3456 13.5603 4.4133 13.5419 4.4865ZM22.8795 4.4865C22.5478 4.1788 22.1465 3.8064 21.9101 3.5866C21.8554 3.5359 21.8251 3.4641 21.8269 3.3895C21.8288 3.3149 21.8625 3.2447 21.9197 3.1967C21.9775 3.1464 22.0529 3.1252 22.127 3.1365C22.2011 3.1478 22.2668 3.1904 22.3073 3.2535L22.974 4.2866C22.9305 4.3456 22.898 4.4133 22.8795 4.4865ZM8.8731 4.4865C8.5413 4.1788 8.14 3.8064 7.9037 3.5866C7.8489 3.5359 7.8186 3.4641 7.8205 3.3895C7.8223 3.3149 7.8561 3.2447 7.9132 3.1967C7.971 3.1464 8.0464 3.1252 8.1205 3.1365C8.1946 3.1478 8.2603 3.1904 8.3009 3.2535L8.9675 4.2866C8.924 4.3456 8.8915 4.4133 8.8731 4.4865ZM18.2107 4.4865C17.879 4.1788 17.4777 3.8064 17.2413 3.5866C17.1866 3.5359 17.1563 3.4641 17.1581 3.3895C17.1599 3.3149 17.1937 3.2447 17.2508 3.1967C17.3086 3.1464 17.384 3.1252 17.4582 3.1365C17.5323 3.1478 17.598 3.1904 17.6385 3.2535L18.3052 4.2866C18.2617 4.3456 18.2291 4.4133 18.2107 4.4865ZM4.2042 4.4865C3.8725 4.1788 3.4712 3.8064 3.2348 3.5866C3.1801 3.5359 3.1498 3.4641 3.1516 3.3895C3.1535 3.3149 3.1872 3.2447 3.2444 3.1967C3.3022 3.1464 3.3776 3.1252 3.4517 3.1365C3.5258 3.1478 3.5915 3.1904 3.632 3.2535L4.2987 4.2866C4.2552 4.3456 4.2227 4.4133 4.2042 4.4865ZM5.2237 4.2858C5.4581 3.9227 5.727 3.5064 5.8904 3.254C5.9309 3.1913 5.9963 3.149 6.0701 3.1378C6.1439 3.1266 6.2189 3.1477 6.2761 3.1956C6.3357 3.2438 6.3696 3.3144 6.3714 3.3894C6.3731 3.4643 6.3426 3.5364 6.2875 3.5873L5.3185 4.4856C5.3 4.4124 5.2673 4.3448 5.2237 4.2858ZM23.899 4.2858C24.1334 3.9227 24.4023 3.5064 24.5657 3.254C24.6062 3.1913 24.6716 3.149 24.7454 3.1378C24.8192 3.1266 24.8942 3.1477 24.9514 3.1956C25.011 3.2438 25.0449 3.3144 25.0466 3.3894C25.0484 3.4643 25.0179 3.5364 24.9628 3.5873L23.9938 4.4856C23.9753 4.4124 23.9426 4.3448 23.899 4.2858ZM19.2301 4.2858C19.4646 3.9227 19.7335 3.5064 19.8969 3.254C19.9373 3.1913 20.0028 3.149 20.0766 3.1378C20.1503 3.1266 20.2254 3.1477 20.2825 3.1956C20.3421 3.2438 20.3761 3.3144 20.3778 3.3894C20.3796 3.4643 20.349 3.5364 20.294 3.5873L19.325 4.4856C19.3064 4.4124 19.2738 4.3448 19.2301 4.2858ZM14.5613 4.2858C14.7958 3.9227 15.0647 3.5064 15.2281 3.254C15.2685 3.1913 15.334 3.149 15.4077 3.1378C15.4815 3.1266 15.5565 3.1477 15.6137 3.1956C15.6733 3.2438 15.7072 3.3144 15.709 3.3894C15.7108 3.4643 15.6802 3.5364 15.6251 3.5873L14.6562 4.4856C14.6376 4.4124 14.605 4.3448 14.5613 4.2858ZM9.8925 4.2858C10.1269 3.9227 10.3958 3.5064 10.5592 3.254C10.5997 3.1913 10.6651 3.149 10.7389 3.1378C10.8127 3.1266 10.8877 3.1477 10.9449 3.1956C11.0045 3.2438 11.0384 3.3144 11.0402 3.3894C11.0419 3.4643 11.0114 3.5364 10.9563 3.5873L9.9874 4.4856C9.9688 4.4124 9.9362 4.3448 9.8925 4.2858ZM18.3647 4.2179C18.1707 3.8394 17.9515 3.4119 17.8177 3.1501C17.7836 3.0837 17.7797 3.0059 17.8069 2.9364C17.8341 2.8669 17.8899 2.8125 17.96 2.7869C18.0315 2.7594 18.1096 2.7654 18.1754 2.8013C18.2412 2.8373 18.2883 2.8998 18.3049 2.9729L18.5597 4.0914C18.4862 4.1201 18.42 4.1634 18.3647 4.2179ZM13.6959 4.2179C13.5019 3.8394 13.2827 3.4119 13.1488 3.1501C13.1148 3.0837 13.1108 3.0059 13.1381 2.9364C13.1653 2.8669 13.221 2.8125 13.2911 2.7869C13.3627 2.7594 13.4408 2.7654 13.5066 2.8013C13.5724 2.8373 13.6195 2.8998 13.636 2.9729L13.8909 4.0914C13.8174 4.1201 13.7512 4.1634 13.6959 4.2179ZM9.0271 4.2179C8.833 3.8394 8.6139 3.4119 8.48 3.1501C8.4459 3.0837 8.442 3.0059 8.4693 2.9364C8.4965 2.8669 8.5522 2.8125 8.6223 2.7869C8.6939 2.7594 8.7719 2.7654 8.8377 2.8013C8.9035 2.8373 8.9507 2.8998 8.9672 2.9729L9.2221 4.0914C9.1485 4.1201 9.0823 4.1634 9.0271 4.2179ZM23.0336 4.2179C22.8395 3.8394 22.6204 3.4119 22.4865 3.1501C22.4524 3.0837 22.4485 3.0059 22.4757 2.9364C22.5029 2.8669 22.5587 2.8125 22.6288 2.7869C22.7003 2.7594 22.7784 2.7654 22.8442 2.8013C22.91 2.8373 22.9572 2.8998 22.9737 2.9729L23.2285 4.0914C23.155 4.1201 23.0888 4.1634 23.0336 4.2179ZM4.3583 4.2179C4.1642 3.8394 3.9451 3.4119 3.8112 3.1501C3.7771 3.0837 3.7732 3.0059 3.8004 2.9364C3.8277 2.8669 3.8834 2.8125 3.9535 2.7869C4.025 2.7594 4.1031 2.7654 4.1689 2.8013C4.2347 2.8373 4.2819 2.8998 4.2984 2.9729L4.5532 4.0914C4.4797 4.1201 4.4135 4.1634 4.3583 4.2179ZM9.6376 4.091C9.7291 3.6897 9.83 3.2478 9.893 2.9731C9.9096 2.9003 9.9566 2.8382 10.0221 2.8025C10.0876 2.7668 10.1653 2.7609 10.2355 2.7864L10.2375 2.7856C10.308 2.8113 10.364 2.866 10.3913 2.9358C10.4186 3.0057 10.4145 3.0839 10.3801 3.1505L9.8328 4.2171C9.7774 4.1628 9.7112 4.1195 9.6376 4.091ZM23.644 4.091C23.7356 3.6897 23.8365 3.2478 23.8995 2.9731C23.9161 2.9003 23.9631 2.8382 24.0286 2.8025C24.0941 2.7668 24.1718 2.7609 24.2419 2.7864L24.244 2.7856C24.3144 2.8113 24.3704 2.866 24.3977 2.9358C24.425 3.0057 24.421 3.0839 24.3866 3.1505L23.8393 4.2171C23.7839 4.1628 23.7176 4.1195 23.644 4.091ZM4.9687 4.091C5.0603 3.6897 5.1612 3.2478 5.2242 2.9731C5.2408 2.9003 5.2878 2.8382 5.3533 2.8025C5.4188 2.7668 5.4965 2.7609 5.5666 2.7864L5.5687 2.7856C5.6391 2.8113 5.6951 2.866 5.7224 2.9358C5.7497 3.0057 5.7457 3.0839 5.7113 3.1505L5.164 4.2171C5.1086 4.1628 5.0423 4.1195 4.9687 4.091ZM14.3064 4.091C14.3979 3.6897 14.4988 3.2478 14.5618 2.9731C14.5784 2.9003 14.6254 2.8382 14.691 2.8025C14.7565 2.7668 14.8342 2.7609 14.9043 2.7864L14.9063 2.7856C14.9768 2.8113 15.0328 2.866 15.0601 2.9358C15.0874 3.0057 15.0833 3.0839 15.049 3.1505L14.5016 4.2171C14.4463 4.1628 14.38 4.1195 14.3064 4.091ZM18.9752 4.091C19.0668 3.6897 19.1677 3.2478 19.2307 2.9731C19.2472 2.9003 19.2943 2.8382 19.3598 2.8025C19.4253 2.7668 19.503 2.7609 19.5731 2.7864L19.5752 2.7856C19.6456 2.8113 19.7016 2.866 19.7289 2.9358C19.7562 3.0057 19.7521 3.0839 19.7178 3.1505L19.1704 4.2171C19.1151 4.1628 19.0488 4.1195 18.9752 4.091ZM23.331 4.0622C23.2751 3.5613 23.2104 2.9815 23.1736 2.6482C23.1653 2.5739 23.189 2.4994 23.2389 2.4436C23.2888 2.3878 23.36 2.3559 23.4349 2.3558C23.5126 2.3544 23.5842 2.3866 23.6343 2.4427C23.6844 2.4988 23.7081 2.5736 23.6996 2.6483L23.5414 4.062C23.5075 4.0557 23.4725 4.0525 23.4368 4.0525C23.4007 4.0525 23.3653 4.0558 23.331 4.0622ZM18.6622 4.0622C18.6063 3.5613 18.5416 2.9815 18.5048 2.6482C18.4964 2.5739 18.5202 2.4994 18.5701 2.4436C18.6199 2.3878 18.6912 2.3559 18.7661 2.3558C18.8438 2.3544 18.9154 2.3866 18.9655 2.4427C19.0155 2.4988 19.0393 2.5736 19.0308 2.6483L18.8726 4.062C18.8387 4.0557 18.8037 4.0525 18.768 4.0525C18.7318 4.0525 18.6965 4.0558 18.6622 4.0622ZM9.3246 4.0622C9.2686 3.5613 9.204 2.9815 9.1671 2.6482C9.1588 2.5739 9.1825 2.4994 9.2324 2.4436C9.2823 2.3878 9.3536 2.3559 9.4284 2.3558C9.5061 2.3544 9.5778 2.3866 9.6278 2.4427C9.6779 2.4988 9.7016 2.5736 9.6931 2.6483L9.5349 4.062C9.501 4.0557 9.466 4.0525 9.4303 4.0525C9.3942 4.0525 9.3588 4.0558 9.3246 4.0622ZM4.6557 4.0622C4.5998 3.5613 4.5351 2.9815 4.4983 2.6482C4.49 2.5739 4.5137 2.4994 4.5636 2.4436C4.6135 2.3878 4.6847 2.3559 4.7596 2.3558C4.8373 2.3544 4.9089 2.3866 4.959 2.4427C5.0091 2.4988 5.0328 2.5736 5.0243 2.6483L4.8661 4.062C4.8322 4.0557 4.7972 4.0525 4.7615 4.0525C4.7254 4.0525 4.69 4.0558 4.6557 4.0622ZM13.9934 4.0622C13.9374 3.5613 13.8728 2.9815 13.8359 2.6482C13.8276 2.5739 13.8514 2.4994 13.9012 2.4436C13.9511 2.3878 14.0224 2.3559 14.0972 2.3558C14.175 2.3544 14.2466 2.3866 14.2966 2.4427C14.3467 2.4988 14.3705 2.5736 14.362 2.6483L14.2038 4.062C14.1698 4.0557 14.1349 4.0525 14.0991 4.0525C14.063 4.0525 14.0277 4.0558 13.9934 4.0622ZM26.7515 0.9196H1.6528L1.5045 0H26.8969L26.7515 0.9196Z" fill="#FECC09"></path></svg>